<svg xmlns="http://www.w3.org/2000/svg" width="26" height="26" viewBox="0 0 26 26">
  <g id="Group_13471" data-name="Group 13471" transform="translate(-0.391 -0.202)">
    <circle id="Ellipse_10" data-name="Ellipse 10" cx="13" cy="13" r="13" transform="translate(0.391 0.202)" fill="#fff"/>
    <g id="Group_12077" data-name="Group 12077" transform="translate(8.005 5.514)">
      <path id="Path_10171" data-name="Path 10171" d="M49.97,8.083V8.018a2.785,2.785,0,0,0,1.616-2.651,3.288,3.288,0,0,0-2.909-3.524.588.588,0,0,1-.485-.582V.582A.58.58,0,0,0,47.61,0h-.453a.58.58,0,0,0-.582.582V1.2a.58.58,0,0,1-.582.582h0a.58.58,0,0,1-.582-.582V.582A.58.58,0,0,0,44.83,0h-.42a.58.58,0,0,0-.582.582V1.2a.58.58,0,0,1-.582.582H42.082a.58.58,0,0,0-.582.582v.905a.58.58,0,0,0,.582.582h.42a.58.58,0,0,1,.582.582v7.921a.58.58,0,0,1-.582.582h-.42a.58.58,0,0,0-.582.582v.905a.58.58,0,0,0,.582.582h1.164a.58.58,0,0,1,.582.582v.582a.58.58,0,0,0,.582.582h.42a.58.58,0,0,0,.582-.582v-.614a.58.58,0,0,1,.582-.582h0a.58.58,0,0,1,.582.582v.614a.58.58,0,0,0,.582.582h.42a.58.58,0,0,0,.582-.582v-.711a.621.621,0,0,1,.485-.582,3.408,3.408,0,0,0,3.265-3.718A3.045,3.045,0,0,0,49.97,8.083ZM45.444,4.462a.58.58,0,0,1,.582-.582h1.422a1.537,1.537,0,0,1,1.746,1.681,1.56,1.56,0,0,1-1.746,1.714H46.026a.58.58,0,0,1-.582-.582Zm1.843,8.471H46.026a.58.58,0,0,1-.582-.582V9.829a.58.58,0,0,1,.582-.582h1.358c1.358,0,2.166.453,2.166,1.875C49.549,12.513,48.806,12.933,47.287,12.933Z" transform="translate(-41.5)" fill="#216efb"/>
    </g>
  </g>
</svg>
